<svg id="district-map" height="641.4" version="1.1" width="355" xmlns="http://www.w3.org/2000/svg"
    xmlns:xlink="http://www.w3.org/1999/xlink"
    style="overflow: hidden; position: relative; left: -0.400002px; top: -0.400002px" viewBox="0 0 332.068 600"
    preserveAspectRatio="xMinYMin">
    <path districtNumber="District - 01" fill="#e0e0e0" stroke="#ffffff"
        d="M 72.1 457.2 L 74.5 463.8 L 71 464.4 L 71 464.2 C 71 464.2 65 461.5 60.1 468.6 C 58.8 470.5 54.6 460.4 54.6 460.4 L 42.6 471.8 L 38.3 469.1 H 38.3 L 31.3 471.2 L 32.8 478.2 C 31.1 477.6 28.7 477 26.3 477.3 L 26.1 477.3 C 25.7 476.2 25.4 475.2 25.2 474.6 C 24.9 473.8 24.6 472.7 24.3 471.5 H 24.3 C 24 470 23.6 468.3 23.2 466.5 C 22.7 464.4 20.3 452.2 20.3 452.2 L 19.5 449.6 L 17 440.7 L 21.9 435.8 C 22.1 435.1 21.7 433 21.2 430.4 L 21.2 430.4 C 21.8 430.9 22.6 431.5 23.3 432.2 C 24.1 433 24.7 433.8 24.7 434.4 C 24.7 434.7 24.7 435 24.7 435.3 C 24.7 436.6 24.5 437.9 24.5 438 S 24.9 438.6 25.4 439.4 C 25.4 439.5 25.4 439.5 25.4 439.4 C 25.4 439.4 28.9 437.1 30.5 436.9 C 31.7 436.7 34.2 437.1 35.2 437.2 C 35.1 438 37.7 437.3 37.1 439.7 C 37 440 36.9 440.8 36.9 440.9 L 42.6 441.7 L 49.2 441.3 L 52.4 445.8 L 54.5 446.2 L 57.8 442.1 L 62.8 439.7 L 68.5 437.5 L 68.8 438.4 L 74.5 439.5 L 75.8 441.8 L 76 442.8 L 77.4 448.2 L 77.4 448.3 L 70.7 451.1 L 72.1 457.2 Z"
        stroke-opacity="0.8" stroke-width="1" stroke-linejoin="round" data-id="Colombo" data-type="area" class="area"
        style="stroke-linejoin: round; -webkit-tap-highlight-color: rgba(0, 0, 0, 0); cursor: pointer"></path>
    <path districtNumber="District - 02" fill="#e0e0e0" stroke="#ffffff"
        d="M 68.4 412.3 L 73.3 418.4 L 71.2 419.3 L 68.6 424 L 70.8 431.1 L 70.1 436.6 L 70.2 436.9 L 68.5 437.5 L 62.8 439.7 L 57.8 442.1 L 54.5 446.2 L 52.5 445.8 L 49.2 441.3 L 42.6 441.7 L 36.9 441 C 36.9 440.8 36.9 440.7 36.9 440.5 C 37 440.2 37 440 37.1 439.8 C 37.7 437.3 35.1 438 35.2 437.3 C 35.2 437.2 35.2 437 35.3 436.9 C 35.2 437 35.2 437.2 35.2 437.3 C 34.2 437.1 31.7 436.7 30.5 436.9 C 28.9 437.1 25.6 439.3 25.6 439.3 L 25.4 439.5 C 24.9 438.6 24.5 438 24.5 438 S 24.7 436.7 24.7 435.3 C 24.7 435 24.8 434.8 24.8 434.5 C 24.8 433.9 24.1 433 23.3 432.2 C 22.6 431.6 21.8 430.9 21.2 430.5 L 21.2 430.4 L 21.2 430.4 C 20 425.2 18.1 418.4 18.1 418.4 L 17 403.7 L 19.7 415.1 C 19.7 415.1 21.9 415.7 23 414 C 24.1 412.4 18.1 403.1 19.7 399.8 C 20.2 399 20.3 397.5 20.2 395.8 C 21.7 396.2 24.1 396.8 26.2 397.1 C 27.8 397.3 29.2 397.4 29.9 397.1 C 30.7 396.9 31.7 396.2 32.7 395.4 V 395.3 C 33.4 394.8 34.2 394.2 34.9 393.5 C 36.6 392.2 38.4 390.9 40.2 390.6 C 43.9 389.7 49.6 389.7 51.2 389.7 C 52.9 389.7 59.4 392.2 59.4 392.2 L 65.1 388.1 V 387.7 C 65.3 387.7 65.5 387.7 65.8 387.8 C 67.7 388.5 71.9 392.2 71.9 392.2 L 76.2 395.5 L 73.3 403.2 L 71.7 406.9 L 68.4 412.3 Z"
        stroke-opacity="0.8" stroke-width="1" stroke-linejoin="round" data-id="Gampaha" data-type="area" class="area"
        style="stroke-linejoin: round; -webkit-tap-highlight-color: rgba(0, 0, 0, 0); cursor: pointer"></path>
    <path districtNumber="District - 03" fill="#e0e0e0" stroke="#ffffff"
        d="M 97.5 522.3 L 95.7 522.6 L 88.5 528 L 87.6 530.5 L 85.2 535.4 L 80.7 532.1 L 76.2 529.7 L 66.4 534.6 L 58.2 530.9 L 54.5 527.2 L 52 522.7 L 45.9 520.7 L 39.1 523.5 C 38.5 521.8 38 520.3 37.7 519.3 C 36.6 516 35 501.3 35 501.3 V 501.3 C 35 501.3 33.1 496.3 31 490.5 C 29.2 485.8 27.3 480.7 26.1 477.4 L 26.3 477.3 C 28.7 477 31.1 477.6 32.8 478.2 L 31.3 471.3 L 38.3 469.1 L 42.6 471.8 L 54.6 460.4 C 54.6 460.4 58.8 470.5 60.1 468.6 C 65 461.5 71 464.2 71 464.2 L 71 464.4 L 70.1 464.6 L 70.9 470.7 L 72.9 479.7 L 76.2 487.1 L 78.6 492.9 L 90.5 498.2 L 89.9 500.6 L 88.4 508.4 L 95.8 517.4 L 97.5 522.3 Z"
        stroke-opacity="0.8" stroke-width="1" stroke-linejoin="round" data-id="Kalutara" data-type="area" class="area"
        style="stroke-linejoin: round; -webkit-tap-highlight-color: rgba(0, 0, 0, 0); cursor: pointer"></path>
    <path districtNumber="District - 04" fill="#e0e0e0" stroke="#ffffff"
        d="M 201.4 403.2 L 194.8 406.1 L 193.7 406.5 L 187.1 405.3 L 179.3 409 L 179.1 408.5 L 177.7 405.7 L 172.3 404.9 L 163.3 395.1 L 160.5 397.5 H 160.5 L 161.7 406.1 L 154.3 415.1 L 153.1 420.4 H 138 L 134.7 422.1 L 131.3 425.2 L 136.7 430.3 L 136.3 432.3 L 138 438 L 137.1 443.8 L 127.1 440.3 L 124.5 437.2 L 122.4 434 L 118.7 431.1 L 117.5 427 L 114.6 420.5 L 113.2 419.2 L 112 418.2 L 115.5 416.8 L 119.5 415.1 L 124.8 413.3 L 129.8 411.5 L 130.6 409.4 L 125.7 402 L 125.3 398.8 L 120.8 389.8 L 117.4 388.7 L 116.1 388.3 L 113.2 383.9 L 111.6 382.2 L 111.8 382 L 116.3 379.1 C 116.3 379.1 117.9 375 119.1 373.8 C 120.4 372.6 125.3 374.6 125.3 374.6 C 125.3 374.6 130.6 365.2 131.8 364.4 C 133 363.6 133.9 366 133.9 366 L 134.3 366.5 L 137.1 371 L 143.6 375.9 H 143.6 L 151.9 376.7 L 152.7 371.8 L 154.3 368.5 L 155.9 364.6 L 157.8 364.5 L 159.2 364.4 L 162.9 366.4 L 166.2 368.5 L 166.6 368.1 V 368.1 L 169.9 365.6 L 174 363.6 L 179.4 363.7 L 186.7 364.3 L 189.3 361.7 L 193.2 363.6 L 194.3 363.2 L 196.9 370.1 L 197.7 383.6 L 197.8 390.1 L 201.4 403.2 Z"
        stroke-opacity="0.8" stroke-width="1" stroke-linejoin="round" data-id="Mahanuwara" data-type="area" class="area"
        style="stroke-linejoin: round; -webkit-tap-highlight-color: rgba(0, 0, 0, 0); cursor: pointer"></path>
    <path districtNumber="District - 05" fill="#e0e0e0" stroke="#ffffff"
        d="M 197.4 334.5 L 196.6 345.2 L 193.4 351.3 L 193.7 358.5 L 193.9 362.1 L 194.3 363.1 L 193.2 363.6 L 189.3 361.7 L 186.7 364.3 L 179.4 363.7 L 174 363.6 L 169.9 365.6 L 166.6 368.1 L 166.2 368.5 L 162.9 366.4 L 159.2 364.4 L 157.8 364.5 L 155.9 364.6 L 154.3 368.5 L 152.7 371.7 L 151.9 376.6 L 143.6 375.9 L 137.1 371 L 134.3 366.4 L 133.9 366 C 133.9 366 133.1 363.6 131.8 364.4 L 135.9 360 C 131.6 355.7 136.7 341.1 136.7 341.1 L 132.6 337.4 L 128.6 328.4 L 126.1 319 L 123.2 315.3 L 122.2 311 L 121.6 308.3 C 121.6 308.3 141.2 305.5 144.5 300.1 C 147.8 294.8 147.4 288.7 149 287.4 C 150.6 286.2 160.9 280.5 160.9 280.5 C 162.5 284.2 177.6 287 177.2 289.9 C 176.8 292.8 174.8 294.8 174.4 296 C 174 297.3 175.2 304.6 173.2 306.7 C 171.1 308.7 167 314.1 167 314.1 S 166.8 314.6 166.9 314.8 C 167.5 316.2 167.8 317.9 168.2 319.8 C 169.1 323.5 168.2 329.6 171.5 330 C 174.8 330.4 185.4 324.3 185.4 324.3 S 193.2 325.3 199.3 326.1 L 197.4 334.5 Z"
        stroke-opacity="0.8" stroke-width="1" stroke-linejoin="round" data-id="Matale" data-type="area" class="area"
        style="stroke-linejoin: round; -webkit-tap-highlight-color: rgba(0, 0, 0, 0); cursor: pointer"></path>
    <path districtNumber="District - 06" fill="#e0e0e0" stroke="#ffffff"
        d="M 194.4 414.7 L 193.6 420 L 191.5 427 L 189.5 431.9 L 186.9 435.9 L 183.4 441.3 L 178.5 439.7 L 175.2 443.7 L 174.4 445.4 L 173.5 448.7 L 169.5 450.3 L 166.6 449.3 L 169 454.6 L 170.3 459.4 L 171.1 464.2 L 170.5 468 L 170.3 469.5 L 169.4 470.7 L 169 470.4 C 169 470.4 159.6 472 157.2 472.8 C 154.7 473.6 142.1 473.6 142.1 473.6 L 135.1 470.8 C 135.1 470.8 132.6 470.5 130 470.1 C 127.9 469.9 125.8 469.5 124.9 469.1 C 123.3 468.5 121.6 466.1 120.8 464.9 L 120.9 458.2 L 120.8 455.2 L 117 451.8 L 113.2 447.4 L 111.8 441.7 V 437.6 L 118.7 431.1 L 122.4 433.9 L 124.5 437.2 L 127.1 440.3 L 137.1 443.8 L 138 438 L 136.3 432.3 L 136.7 430.3 L 131.3 425.2 L 134.7 422.1 L 138 420.4 H 153.1 L 154.3 415.1 L 161.7 406.1 L 160.5 397.5 L 163.3 395.1 L 172.3 404.9 L 177.7 405.7 L 179.3 409 L 187.1 405.3 L 193.7 406.5 L 193.6 406.5 L 194.4 414.7 Z"
        stroke-opacity="0.8" stroke-width="1" stroke-linejoin="round" data-id="NuwaraEliya" data-type="area"
        class="area" style="stroke-linejoin: round; -webkit-tap-highlight-color: rgba(0, 0, 0, 0); cursor: pointer">
    </path>
    <path districtNumber="District - 07" fill="#e0e0e0" stroke="#ffffff"
        d="M 116.3 543.2 C 115.9 544.4 114.2 544 114.2 544 S 98.7 536.2 99.9 539.9 C 101.1 543.6 106.9 548.9 107.7 550.1 C 108.5 551.4 107.7 554.2 107.7 554.2 L 107.6 554.2 L 100.7 554.6 C 100.7 554.7 99.1 564.1 101.1 568.1 C 103.2 572.2 108.9 576.3 107.7 578 C 107 578.8 106.1 579.3 105.3 579.6 C 104.5 579.9 104 580 104 580 H 100.7 V 587 L 97.9 592.7 L 97.5 593.6 C 91.7 591.6 79.1 587.1 77 585.9 C 76.5 585.5 76.1 585.2 75.8 584.9 C 74.7 583.7 75.4 582.6 75.4 582.6 S 72.1 581 70.4 580.4 C 69.1 580 66.3 577.3 64.4 575.5 V 575.5 C 64 575.1 63.6 574.7 63.4 574.4 C 61.7 572.8 48.6 558 47.5 554.8 C 47.3 554.1 46.9 552.7 46.5 550.9 C 44.8 544.4 42.1 532.9 42.1 532.9 S 42 532.6 41.8 532.1 C 41.3 530.5 40.1 526.7 39.1 523.5 L 45.9 520.7 L 52 522.7 L 54.5 527.2 L 58.2 530.9 L 66.4 534.6 L 70.3 532.7 H 70.3 L 73.3 531.3 L 76.2 529.7 L 80.7 532.1 L 85.2 535.4 L 87.6 530.5 L 88.5 528 L 91.3 525.6 L 95.7 522.6 L 117.3 534.2 L 117.1 534.6 L 114.2 536.6 C 111.4 538.7 116.7 541.9 116.3 543.2 Z"
        stroke-opacity="0.8" stroke-width="1" stroke-linejoin="round" data-id="Galle" data-type="area" class="area"
        style="stroke-linejoin: round; -webkit-tap-highlight-color: rgba(0, 0, 0, 0); cursor: pointer"></path>
    <path districtNumber="District - 08" fill="#e0e0e0" stroke="#ffffff"
        d="M 147.9 593.6 C 144.8 594.2 141.4 594.6 141.4 594.6 L 127.7 599.5 V 597.9 L 117.4 597.3 L 113 599 L 107.6 596.2 C 107.6 596.2 107 593.5 105.4 592.9 C 103.7 592.4 100.5 594.6 100.5 594.6 S 99.3 594.2 97.5 593.6 L 100.7 586.9 V 580 H 104 C 104 580 104.6 579.9 105.3 579.6 C 106.1 579.3 107 578.8 107.7 577.9 C 108.9 576.3 103.2 572.2 101.1 568.1 C 99.1 564 100.7 554.6 100.7 554.6 L 107.6 554.2 C 107.9 553.1 108.5 551.4 107.7 550.1 C 106.9 548.9 101.1 543.6 99.9 539.9 C 98.7 536.2 114.2 544 114.2 544 S 115.9 544.4 116.3 543.2 C 116.7 541.9 111.4 538.7 114.2 536.6 C 117.1 534.6 117.3 534.2 117.3 534.2 L 119.5 535.4 L 136.7 528.8 L 135.1 535.4 C 135.1 535.4 140.8 536.2 144.1 536.2 C 146.4 536.2 145.9 541 145.4 543.9 C 145.3 544.2 145.3 544.5 145.2 544.8 V 544.8 C 142.1 548 134.9 558.4 135.4 560.8 C 135.9 563.5 141.4 567.3 141.4 567.3 L 143.6 570.6 L 147.4 573.9 L 145.2 575.5 C 145.2 575.5 147.9 578.2 145.7 580.4 C 144.1 582 139.7 585.3 139.7 585.3 L 143 588 L 147.4 590.2 L 147.9 593.5 L 147.9 593.6 Z"
        stroke-opacity="0.8" stroke-width="1" stroke-linejoin="round" data-id="Matara" data-type="area" class="area"
        style="stroke-linejoin: round; -webkit-tap-highlight-color: rgba(0, 0, 0, 0); cursor: pointer"></path>
    <path districtNumber="District - 09" fill="#e0e0e0" stroke="#ffffff"
        d="M 301.9 516.2 C 300.7 517.7 299.6 519.1 299 519.9 C 297.4 522.1 288.1 530.2 282.1 534.6 C 276.1 539 273.9 539 269.6 542.8 C 265.2 546.6 259.7 550.4 254.3 552.6 C 248.8 554.8 245 560.3 245 560.3 L 242.3 560.8 C 239.6 561.3 221 565.7 219.4 566.8 C 217.7 567.9 209.5 572.8 209.5 572.8 S 201.9 573.3 197.6 572.8 L 197.5 572.8 L 197.5 572.8 C 193.2 572.3 185 575 185 575 L 183.9 573.3 C 182.8 571.7 180.6 578.8 180.6 578.8 S 173.5 581.5 170.8 582.1 C 168.1 582.6 165.9 581.5 164.3 581.5 C 162.6 581.5 161 585.9 159.4 587.5 C 158.2 588.6 157.4 588.2 156.9 587.8 C 156.7 587.7 156.6 587.5 156.6 587.5 S 154.5 591.3 152.3 592.4 C 151.5 592.8 149.8 593.2 147.9 593.6 L 147.9 593.5 L 147.4 590.2 L 143 588.1 L 139.7 585.3 C 139.7 585.3 140 585.2 140.4 584.9 C 141.5 584 144.1 582 145.7 580.4 C 147.9 578.2 145.2 575.5 145.2 575.5 L 147.4 573.9 L 143.5 570.6 L 141.4 567.3 C 141.4 567.3 135.9 563.5 135.4 560.8 C 134.9 558.4 142.1 548 145.2 544.8 V 544.8 C 145.7 544.3 146.1 543.9 146.3 543.9 C 147.9 543.3 164.3 551.5 164.3 551.5 S 166.5 551.5 168.1 552 C 169.7 552.6 176.8 553.1 179.6 554.2 C 182.3 555.3 187.2 555.3 187.2 555.3 H 187.2 L 185.6 544.4 C 185.6 544.4 195.9 539 197.6 538.4 C 199.2 537.9 199.2 534 200.3 531.9 C 201.4 529.7 215.6 528.6 219.4 529.1 C 223.2 529.7 227.6 538.9 229.7 540 C 231.9 541.1 237.9 538.4 237.9 538.4 S 258.1 531.9 262.5 529.7 C 266.9 527.5 270.1 522 271.2 519.9 C 272.3 517.7 276.7 516 279.9 514.4 C 283.2 512.8 287 510 287 510 L 301.8 516 L 301.9 516.2 Z"
        stroke-opacity="0.8" stroke-width="1" stroke-linejoin="round" data-id="Hambantota" data-type="area" class="area"
        style="stroke-linejoin: round; -webkit-tap-highlight-color: rgba(0, 0, 0, 0); cursor: pointer"></path>
    <path districtNumber="District - 10" fill="#e0e0e0" stroke="#ffffff"
        d="M 30.1 18.7 C 30.1 18.7 38.8 17.6 39.4 20.3 C 39.9 23.1 38.8 25.8 41 25.2 C 43.2 24.7 44.3 22 44.3 22 L 50.3 30.7 L 49.2 32.3 L 42.6 30.2 L 41 32.3 L 35.5 28.5 C 35.5 28.5 38.8 23.6 37.2 24.2 C 35.5 24.7 31.7 24.2 31.7 24.2 L 30.1 18.7 M 51.9 29.1 C 51.9 29.1 51.9 34 50.3 36.2 C 48.6 38.3 57.4 32.9 57.4 32.9 V 30.2 L 51.9 29.1 M 25.7 29.1 C 25.7 29.1 25.7 36.2 27.4 38.9 C 29 41.6 33.9 40.5 33.9 40.5 L 34.5 32.3 C 34.5 32.3 31.7 31.8 28.6 31.4 C 25.4 31 25.7 29.1 25.7 29.1 M 16.4 34.5 C 20.3 38.9 20.8 31.2 20.8 31.2 H 18.6 C 16.4 31.2 16.4 34.5 16.4 34.5 M 2.3 39.4 C 2.3 39.4 1.2 47.6 5.5 50.3 C 9.9 53.1 12.6 50.9 12.1 49.2 C 11.5 47.6 12.6 44.9 10.5 44.9 C 8.3 44.9 2.3 39.4 2.3 39.4 M 19.2 23.1 L 22.5 25.3 C 25.7 27.4 23.5 22 23.5 22 L 20.3 20.3 L 19.2 23.1 M 2.2 39.2 C 2.2 39.2 1.1 47.4 5.5 50.1 C 9.8 52.9 12.6 50.7 12 49 C 11.5 47.4 12.6 44.7 10.4 44.7 C 8.2 44.7 2.2 39.2 2.2 39.2 M 157.7 63.8 L 140.8 51.2 L 131.7 42.5 L 125.6 36.5 L 108.8 22.7 L 93.9 0.5 L 90.1 1.6 L 89.7 1.6 L 79.2 1 L 78.1 4.9 C 78.1 4.9 84.6 9.2 87.4 8.7 C 88.2 8.5 89.2 8.6 90.2 8.7 C 91.1 8.8 92.1 9 92.8 9.2 C 94.1 9.5 95 9.8 95 9.8 L 107 26.1 L 118.8 34.1 L 122.3 39.8 C 122.2 39.7 121.9 39.6 121.5 39.3 C 118.6 37.5 108.9 31.5 107.5 31 C 107.5 31 107.5 31 107.4 31 C 107.3 30.9 107.2 30.8 107 30.6 C 106.9 30.6 106.8 30.5 106.7 30.4 C 106.4 30.1 106 29.7 105.6 29.2 C 105.4 29 105.2 28.8 105.1 28.6 C 104.3 27.7 103.3 26.6 102.3 25.4 C 101.9 25 101.6 24.6 101.2 24.1 C 100.8 23.6 100.4 23.1 100 22.7 C 99.8 22.4 99.6 22.2 99.4 22 C 99.3 21.8 99.1 21.6 99 21.4 C 98.7 21.1 98.5 20.8 98.2 20.5 C 98.2 20.5 98.2 20.5 98.2 20.5 C 97.9 20.2 97.7 19.8 97.4 19.5 C 97 19.1 96.7 18.6 96.3 18.1 C 96 17.8 95.8 17.5 95.5 17.2 C 94.4 15.7 93.3 14.4 92.4 13.3 H 92.4 H 92.4 C 92 12.8 91.7 12.3 91.3 11.9 C 91.2 11.7 91.1 11.6 90.9 11.4 C 90.4 10.7 90.1 10.3 90.1 10.3 S 84.6 10.8 80.8 10.8 C 80.5 10.9 80.3 10.9 80.1 10.9 C 79.9 10.9 79.8 10.9 79.7 10.9 C 75.9 10.9 75.4 3.2 75.4 3.2 L 72 2.6 L 61.2 0.5 C 61.2 0.5 56.3 3.2 54.6 3.8 C 53 4.3 47.8 2.3 47.6 2.1 C 47.7 2.4 47.7 2.4 47.6 2.1 L 47.5 2.1 C 47.5 2.1 42.6 8.1 42.6 9.8 C 42.6 11.4 45.4 14.1 45.4 14.1 L 46 15.3 L 48.6 20.7 L 52.4 19.6 L 54.7 21.7 L 61.2 27.8 L 72.1 33.2 L 65 24 L 66.6 22 C 66.6 22 66.6 22 66.6 22 C 66.6 22 66.6 22 66.6 22 L 69.4 18.5 H 75.3 L 80.8 13.6 L 85.2 15.2 H 85.2 H 85.2 L 77 20.1 L 76.4 23.4 L 72.6 21.2 L 69.9 23.4 L 72.6 28.3 L 80.3 32.7 L 82.4 30.5 L 81.9 26.1 L 85.7 28.3 L 101.5 39.2 L 115.2 49 L 115.2 49 L 119.6 46.3 L 122.3 47.4 L 124.5 45.2 L 125.1 45.7 L 125.2 45.6 L 125.1 45.7 L 131.6 50.1 L 139.1 50.9 L 140.2 51.9 L 148.5 60 L 138.1 59.4 L 126.6 51.8 L 122.8 52.9 L 119 49.6 L 116.3 50.7 L 113 55.6 L 107.6 57.8 L 104.8 56.1 C 104.8 56.1 93.9 59.4 93.4 57.2 C 92.8 55 96.1 54.5 96.1 54.5 L 93.9 52.3 L 96.6 50.7 L 86.3 44.1 L 78.6 42 L 65 34.9 L 62.3 36.6 L 73.2 42 L 83 54.5 C 83 54.5 80.8 60 78.1 61.1 C 75.4 62.1 65.6 66 65 68.1 C 64.5 70.3 63.9 78 66.1 78 C 68.3 78 71 81.2 71 81.2 L 71.6 94.3 C 71.6 94.3 71.2 95.5 70.6 97.2 C 72.5 97.3 76.6 97.4 79.9 97.3 C 82 97.2 83.7 97 84.4 96.8 C 86.4 96 87.2 94.3 87.2 94.3 S 84 88.2 87.2 86.6 C 90.5 84.9 101.6 83.3 102.8 83.3 C 104 83.3 113.8 84.9 115.5 83.7 C 117.1 82.5 117.9 79.6 120 79.2 C 122 78.8 126.5 79.6 128.6 77.2 C 130.6 74.7 133.5 69.8 135.1 70.2 C 136.7 70.6 140.4 74.3 141.7 73.5 C 142.9 72.6 148.6 69 148.6 69 L 156.4 68.1 L 156.6 68 L 152.3 63.2 L 157.2 66 L 157.7 63.8 Z"
        stroke-opacity="0.8" stroke-width="1" stroke-linejoin="round" data-id="Jaffna" data-type="area" class="area"
        style="stroke-linejoin: round; -webkit-tap-highlight-color: rgba(0, 0, 0, 0); cursor: pointer"></path>
    <path districtNumber="District - 11" fill="#e0e0e0" stroke="#ffffff"
        d="M 170.4 140 C 170.4 140.1 170.4 140.1 170.4 140.2 C 170.4 140.1 170.4 140.1 170.4 140 Z M 193.8 128.7 L 199.2 131.4 L 188.3 112.9 L 184.5 111.2 C 184.5 111.2 181.7 111.8 180.1 109.6 C 178.5 107.4 179.6 104.1 179.6 104.1 L 187.8 107.4 L 179 86.1 L 176.3 86.7 V 92.2 L 168.1 86.1 L 168.7 81.2 L 176.3 84 L 175.4 82.9 L 160.5 64.9 V 68.7 L 168.1 78 L 163.2 75.2 L 156.6 68 L 156.4 68.1 L 148.6 69 C 148.6 69 142.9 72.6 141.7 73.5 C 140.4 74.3 136.7 70.6 135.1 70.2 C 133.5 69.8 130.6 74.7 128.6 77.2 C 126.5 79.6 122 78.8 120 79.2 C 117.9 79.6 117.1 82.5 115.5 83.7 C 113.8 84.9 104 83.3 102.8 83.3 C 101.6 83.3 90.5 84.9 87.2 86.6 C 84 88.2 87.2 94.3 87.2 94.3 S 86.4 96 84.4 96.8 C 83.7 97 81.9 97.2 79.9 97.3 C 76.6 97.4 72.5 97.3 70.6 97.2 C 69.2 101.4 66.7 108.7 65.5 109.1 C 63.9 109.6 62.3 115.6 62.3 115.6 S 55.7 127.1 53 128.7 C 50.3 130.3 40.4 135.8 40.4 135.8 L 41.5 141.2 C 41.5 141.2 39.9 154.9 39.9 157.6 C 39.9 160.3 42.1 172.9 42.1 172.9 S 39.9 189.8 36.7 194.6 L 54.5 198.7 C 54.5 198.7 58.6 192.5 57.4 189.7 C 56.1 186.8 53.7 177.8 56.5 179.4 C 59.4 181.1 64.7 186 69.6 183.5 C 73.5 181.6 79.9 176.9 83.4 176.3 C 84.4 176.2 85.2 176.4 85.6 177 C 87.6 179.8 95 191.7 95 191.7 S 95.4 198.7 98.3 197.8 C 99.9 197.4 100.9 196.9 101.6 196.4 C 102.2 196 102.7 195.5 103.2 195 C 104.4 193.8 112.2 177.8 115.9 177.8 C 119.5 177.8 127.7 179 127.7 179 S 152.7 164.7 149 160.6 C 145.3 156.5 138 149.6 142.1 149.2 C 146.1 148.7 150.2 152 153.5 151.2 C 156.3 150.5 166.1 143.3 170.6 140.4 C 171.3 139.9 172 139.5 172.3 139.3 C 174.5 138.3 188.6 136.6 192 136.1 L 191 130.3 L 187.7 127.1 L 190.5 123.2 L 193.8 128.7 Z M 39.8 130.9 L 36.5 134.1 C 36.5 134.1 24 119.4 19.1 118.3 C 14.2 117.2 4.4 114.5 4.4 114.5 L 6.5 110.1 L 21.8 109.6 L 30 115.1 L 37.1 121.1 L 39.8 123.8 L 38.2 125.4 C 38.2 125.4 32.2 118.9 32.2 121.1 C 32.2 123.2 32.2 123.8 33.8 124.9 C 35.5 126 39.8 130.9 39.8 130.9"
        stroke-opacity="0.8" stroke-width="1" stroke-linejoin="round" data-id="Vanni" data-type="area" class="area"
        style="stroke-linejoin: round; -webkit-tap-highlight-color: rgba(0, 0, 0, 0); cursor: pointer"></path>
    <path districtNumber="District - 12" fill="#e0e0e0" stroke="#ffffff"
        d="M 323.5 363.8 H 323.5 L 320.6 364.8 H 320.5 L 320.4 364.9 L 320.3 364.9 V 358.4 C 320.3 356.8 314.3 342.6 314.3 342.6 L 312.5 338.5 L 307.8 327.8 L 309.4 327.3 C 309.4 327.3 312.5 332 315.6 337.1 C 318.6 342.1 321.7 347.5 321.9 349.1 C 322.4 351.8 323.2 360.7 323.5 363.8 Z M 317.1 368.6 C 315.7 369.6 311.2 372.9 307.6 375 C 305.8 376 304.3 376.8 303.4 376.9 C 300.1 377.5 300.1 380.2 300.1 377.5 C 300.1 374.8 305.6 366.6 298.5 364.9 C 291.4 363.3 280.5 361.7 280.5 361.7 S 279.1 361.1 277.2 360.3 C 273.6 358.6 268.3 355.6 267.9 352.4 C 267.4 347.5 267.4 344.2 267.4 344.2 S 258.1 339.3 257 337.1 C 255.9 334.9 252.1 328.9 252.1 328.9 L 237 323.9 C 237 323.9 236.2 312.8 236.2 311.2 C 236.2 309.6 238.2 301.4 240.7 298.5 C 243.1 295.6 248.4 297.3 250.9 295.6 C 253.3 294 248.9 288.3 246.4 283.8 C 243.9 279.3 250.5 263.3 250.5 260.9 C 250.5 258.4 248.4 248.6 248.4 248.6 V 248.6 C 253.5 248.1 263.2 248.5 265.2 248.6 L 266.9 255.8 L 269 262.9 L 268.5 268.4 L 263 256.4 L 259.8 255.8 L 261.4 261.3 L 255.4 259.6 C 255.4 259.6 254.3 262.4 257 264 C 259.8 265.6 263.6 267.3 263.6 267.3 L 268.5 273.3 L 272.3 267.3 C 272.3 267.3 274 280.9 274.5 283.1 C 275.1 285.3 279.4 285.3 279.4 285.3 L 280 288 L 283.8 287.5 V 292.4 C 283.8 292.4 282.1 294.6 279.4 295.7 C 276.7 296.7 277.8 300 277.8 300 L 281.6 310.4 L 277.8 311.5 L 278.3 314.2 L 286 313.1 C 286 313.1 283.2 303.8 281 301.1 C 278.9 298.4 286.5 294.6 286.5 294.6 L 292 296.7 C 292 296.7 290.9 297.8 287 301.1 C 283.2 304.4 291.4 311.5 291.4 311.5 L 295.2 310.9 L 300.1 319.6 C 300.1 319.6 306.7 321.8 307.2 324 C 307.5 325.1 306.9 326.5 306.2 327.7 C 305.4 329 304.5 330 304.5 330 L 298 322.9 L 290.3 320.2 L 287 325.1 H 287 H 287 L 286.5 328.9 L 297.4 327.8 L 299.6 332.2 L 305.6 336.5 L 306.2 340.9 V 340.9 L 306.7 344.2 C 306.7 344.2 307.2 341.5 310 340.4 C 312.7 339.3 314.3 354.6 314.3 354.6 S 313.2 360.6 314.3 362.7 C 314.7 363.4 315.8 365.7 317.1 368.6 Z"
        stroke-opacity="0.8" stroke-width="1" stroke-linejoin="round" data-id="Batticaloa" data-type="area" class="area"
        style="stroke-linejoin: round; -webkit-tap-highlight-color: rgba(0, 0, 0, 0); cursor: pointer"></path>
    <path districtNumber="District - 13" fill="#e0e0e0" stroke="#ffffff"
        d="M 328.5 443.5 L 324.2 468.6 C 324.2 468.6 317.1 487.6 315.4 489.8 C 313.8 492 315.4 493.1 313.8 496.4 C 312.2 499.7 306.7 510.6 306.7 510.6 S 304.2 513.5 302 516.2 L 301.8 516 L 287.1 510 C 287.1 510 287.3 505.8 287.6 501.2 C 287.9 496.8 288.1 492 288.1 490.4 C 288.1 487.1 289.2 431.5 289.2 431.5 L 275.6 427.1 C 275.6 427.1 274 422.2 272.3 418.4 C 272.1 417.9 272.1 417.3 272.2 416.7 C 273.1 413.2 280 409.1 280 409.1 C 279.9 409 272.3 388.4 271.8 386.2 C 271.2 384 271.8 373.1 271.2 370.4 C 270.7 367.6 255.4 378 255.4 378 S 254.9 381.3 252.1 383.5 C 249.4 385.6 246.1 390 246.1 390 L 246.7 397.6 C 246.7 397.6 244.5 399.3 242.3 399.3 C 240.1 399.3 236.3 395.5 236.3 395.5 C 235.2 393 230.1 388.9 228.4 385.7 C 226.8 382.4 227.6 361.1 227.6 361.1 S 228.4 356.2 225.1 353.7 C 221.9 351.3 209.6 360.3 205.5 360.3 C 201.4 360.3 200.6 352.9 200.6 348.8 C 200.6 345.4 197.7 345.2 196.9 345.2 C 196.7 345.2 196.6 345.2 196.6 345.2 L 197.4 334.5 L 199.3 326.1 C 202.7 326.6 205.6 327 206.3 327.1 C 208.4 327.6 220.6 333.7 220.6 333.7 S 230 338.2 232.1 335.7 C 234.1 333.3 237 323.9 237 323.9 L 252.1 328.9 C 252.1 328.9 255.9 334.9 257 337.1 C 258.1 339.3 267.4 344.2 267.4 344.2 S 267.4 347.5 267.9 352.4 C 268.3 355.6 273.6 358.6 277.2 360.3 C 279.1 361.1 280.5 361.7 280.5 361.7 S 291.4 363.3 298.5 364.9 C 305.6 366.6 300.1 374.7 300.1 377.5 C 300.1 380.2 300.1 377.5 303.4 376.9 C 304.3 376.8 305.9 376 307.6 375 V 375 C 311.2 372.9 315.7 369.6 317.2 368.5 C 320.1 374.5 324.1 382.9 324.1 382.9 L 325.2 379.7 C 325.2 379.7 322.5 372.6 322.5 368.2 C 322.5 364.8 321.1 364.7 320.6 364.8 L 323.5 363.8 H 323.5 C 323.6 364.5 323.6 364.9 323.6 364.9 S 326.9 373.7 329.6 376.9 C 330.8 378.3 331.3 382.9 331.5 387.8 C 331.8 394.4 331.3 401.8 330.7 403.7 C 329.6 406.9 328 405.9 328 405.9 L 326.9 407.9 L 323.6 414.6 L 330.7 411.3 C 330.7 411.3 329.6 418.4 330.1 420.6 C 330.7 422.7 329 423.8 327.4 424.4 C 325.8 424.9 328.5 430.4 328.5 430.4 S 330.7 429.8 331.2 432 C 331.8 434.2 330.1 438.6 327.4 440.2 C 324.7 441.8 328.5 443.5 328.5 443.5 Z"
        stroke-opacity="0.8" stroke-width="1" stroke-linejoin="round" data-id="Digamadulla" data-type="area"
        class="area" style="stroke-linejoin: round; -webkit-tap-highlight-color: rgba(0, 0, 0, 0); cursor: pointer">
    </path>
    <path districtNumber="District - 14" fill="#e0e0e0" stroke="#ffffff"
        d="M 265.2 248.6 C 263.1 248.5 253.5 248.1 248.4 248.6 C 247.4 248.7 246.5 248.8 246 249 C 242.3 250.2 235.3 263.3 232.9 262.9 C 230.4 262.5 231.2 254.3 227.5 249 C 223.9 243.7 214.5 246.1 208.3 244.9 C 205.1 244.2 201.1 240.8 197.6 237.1 C 195.2 234.6 193.1 232 191.4 230 C 190.9 229.3 190.3 228.7 189.9 228.1 C 186.2 223.6 194.8 217.5 197.3 210.1 C 199.7 202.8 189.5 193.8 188.4 189 C 187.3 184.3 185 168.4 185 168.4 S 192.4 154.9 189.5 153.3 C 186.6 151.6 175.6 147.1 173.1 144.3 C 171.6 142.5 170.9 141.2 170.5 140.4 C 171.3 139.9 172 139.5 172.3 139.3 C 174.5 138.3 188.6 136.6 192 136.1 L 192.6 139.6 L 194.5 139.8 L 194.5 139.8 L 198.6 140.2 L 199.2 135.2 L 201.4 134.7 L 204.6 139.6 C 204.6 139.6 201.4 142.9 203.6 143.4 C 205.7 144 207.4 145.1 207.4 145.1 L 215.6 154.9 L 216.6 152.2 L 223.2 164.7 V 166.9 L 227 169.1 L 231.9 176.2 L 238.5 184.9 L 237.4 192 L 240.1 199.1 L 238.5 200.7 L 235.7 198 L 234.1 205.6 L 231.4 203.4 L 226.5 201.3 L 221 205.6 L 223.7 209.4 L 230.2 207.6 L 234.1 210.5 C 234.1 210.5 231.4 213.3 234.1 214.9 C 236.8 216.5 243.9 214.3 243.9 214.3 L 247.2 217.6 L 251.6 214.3 C 251.6 214.3 243.9 212.2 246.1 210 C 248.3 207.8 253.2 205.6 253.2 205.6 L 254.8 209.4 L 257 207.3 L 260.8 229.1 L 255.9 223.1 C 255.9 223.1 255.6 227.1 255.9 228.7 C 256.1 230 256.6 231.2 257.6 231.8 C 260.3 233.4 261.9 234 261.9 234 L 265.2 248.6 Z"
        stroke-opacity="0.8" stroke-width="1" stroke-linejoin="round" data-id="Trincomalee" data-type="area"
        class="area" style="stroke-linejoin: round; -webkit-tap-highlight-color: rgba(0, 0, 0, 0); cursor: pointer">
    </path>
    <path districtNumber="District - 15" fill="#e0e0e0" stroke="#ffffff"
        d="M 135.9 360 L 131.8 364.4 C 130.6 365.2 125.3 374.6 125.3 374.6 S 120.4 372.6 119.1 373.8 C 117.9 375 116.3 379.1 116.3 379.1 L 111.6 382.2 L 107.4 377.8 L 104.4 376.2 C 104.4 376.2 103 377.9 101.4 379.7 C 99.9 381.6 98.3 383.6 97.9 384.4 C 97.5 385.2 96 386.6 94.7 387.7 C 93.4 388.8 92.1 389.7 92.1 389.7 L 88 391.2 L 76.2 395.5 L 71.9 392.2 C 71.9 392.2 67.7 388.5 65.8 387.8 C 65.5 387.7 65.3 387.6 65.1 387.7 V 388.1 L 59.4 392.2 C 59.4 392.2 52.9 389.7 51.2 389.7 C 49.6 389.7 43.9 389.7 40.2 390.6 C 38.5 390.9 36.6 392.2 34.9 393.5 L 34.8 393.4 C 34.8 393.4 32.9 384.1 32 377 C 31.7 375 31.6 373.1 31.6 371.7 C 31.6 369.7 31.5 365 31.5 359.5 C 31.4 351.5 31.3 341.9 31.2 337 V 337 L 32 337 C 32 337 36.1 335.7 36.1 334.5 C 36.1 333.3 34.9 332 36.5 331.2 C 38.1 330.4 41.4 327.9 41.4 327.9 L 42.2 321.4 C 42.2 321.4 46.7 306.7 50.8 304.6 C 54.9 302.6 58.2 300.1 59 297.7 C 59.8 295.2 59 291.5 63.1 290.7 C 65.8 290.2 67.6 288.7 68.5 287.8 C 69 287.4 69.2 287 69.2 287 S 72.9 273.9 70.4 271.9 C 68 269.8 68 269 68 267 C 68 265.9 67.9 261.2 67.3 257.2 L 67.6 257.2 C 67.6 257.2 77.4 258 79.5 259.2 C 81.5 260.4 110.1 272.7 111.4 275.6 C 112.6 278.4 111.8 288.7 114.2 289.5 C 115.6 290 117.1 290.4 118.1 290.4 L 118.7 291.1 C 120.4 295.2 117.5 305 117.5 305 L 117.4 305.3 C 119.6 306.7 121.6 308.3 121.6 308.3 L 122.2 311 L 123.2 315.3 L 126.1 319 L 128.6 328.4 L 132.6 337.3 L 132.6 337.4 L 136.7 341.1 C 136.7 341.1 131.6 355.7 135.9 360 Z"
        stroke-opacity="0.8" stroke-width="1" stroke-linejoin="round" data-id="Kurunegala" data-type="area" class="area"
        style="stroke-linejoin: round; -webkit-tap-highlight-color: rgba(0, 0, 0, 0); cursor: pointer"></path>
    <path districtNumber="District - 16" fill="#e0e0e0" stroke="#ffffff"
        d="M 69.2 287 C 69.2 287 69 287.4 68.5 287.8 C 67.6 288.8 65.8 290.2 63.1 290.7 C 59 291.5 59.8 295.2 59 297.7 C 58.2 300.1 54.9 302.6 50.8 304.6 C 46.7 306.7 42.2 321.4 42.2 321.4 L 41.4 328 C 41.4 328 38.1 330.4 36.5 331.2 C 34.9 332 36.1 333.3 36.1 334.5 C 36.1 335.7 32 337 32 337 L 31.2 337 V 337 C 31.3 341.9 31.4 351.5 31.5 359.5 C 31.5 365 31.6 369.7 31.6 371.7 C 31.6 373.1 31.7 375 32 377 C 32.9 384.1 34.9 393.4 34.9 393.4 L 34.9 393.5 C 34.2 394.2 33.4 394.8 32.7 395.3 C 31.7 396.2 30.7 396.8 29.9 397.1 C 29.2 397.4 27.8 397.3 26.2 397.1 C 24.1 396.8 21.7 396.2 20.2 395.8 C 20 391.1 18.3 384.2 17.5 381.8 C 17.3 381 17 379.7 16.9 378.2 C 16.4 374.1 16.5 368.7 16.5 368.7 L 13.2 356.7 L 12.1 346.4 C 12.1 346.4 15.3 356.2 17.5 359.5 C 18.2 360.5 18.1 359.2 17.7 357 H 17.7 C 16.8 352.4 14.3 343.7 14.3 343.7 S 14.3 332.2 14.8 329.5 C 15 328.5 14.5 325.5 13.7 322 C 12.4 316 10.5 308.7 10.5 308.7 L 0.6 264.5 C 0.6 264.5 0.1 259.6 1.2 254.7 C 2.3 249.8 0.6 246.5 0.6 246.5 L 4.4 243.3 L 8.8 230.7 L 13.2 225.8 L 10.5 237.8 L 12.1 243.3 C 12.1 243.3 11.5 246.5 8.8 249.3 C 6.1 252 8.8 252 8.8 252 L 6.6 261.8 L 9.9 269.4 L 8.3 271.1 C 6.6 272.7 8.8 279.3 10.4 280.9 C 12.1 282.5 16.4 282 16.4 282 S 17.5 284.2 16.4 290.2 C 15.4 296.2 14.8 313.1 14.8 313.1 H 18.1 C 18.1 313.1 16.4 298.4 17.5 300 C 18.1 300.9 19.3 295.5 20.2 289.9 C 21 284.8 21.6 279.5 21.4 278.7 C 20.8 277.1 14.3 268.4 14.3 268.4 S 17 266.7 18.1 265.1 C 19.2 263.5 19.7 254.7 20.3 252.5 C 20.8 250.4 19.2 244.4 16.4 244.4 C 13.7 244.4 22.4 234.5 24.6 231.8 C 26.8 229.1 24.1 225.8 23.5 223.1 C 23 220.4 29 210.5 29 210.5 L 28.4 199.1 C 28.4 199.1 31.7 197.4 35.5 195.8 C 36 195.6 36.4 195.2 36.7 194.6 L 54.5 198.7 C 54.5 198.7 57.8 204 58.2 206 C 58.6 208.1 48.4 223.6 45.5 226.5 C 42.7 229.3 49 244.8 49.2 245.3 L 49.2 245.3 C 49.2 246.3 58 248.6 62.7 249.9 C 63.8 250.2 64.7 250.5 65.1 250.6 C 66.2 251 66.9 253.9 67.3 257.2 C 67.9 261.3 68 265.9 68 267 C 68 269 68 269.9 70.5 271.9 C 72.9 274 69.2 287 69.2 287 Z"
        stroke-opacity="0.8" stroke-width="1" stroke-linejoin="round" data-id="Puttalam" data-type="area" class="area"
        style="stroke-linejoin: round; -webkit-tap-highlight-color: rgba(0, 0, 0, 0); cursor: pointer"></path>
    <path districtNumber="District - 17" fill="#e0e0e0" stroke="#ffffff"
        d="M 197.3 210.1 C 194.9 217.5 186.3 223.6 190 228.1 C 190.4 228.7 190.9 229.3 191.5 230 C 190.8 231.3 187.1 238.1 183.8 239.6 C 180.1 241.2 177.7 241.6 174.8 242.4 C 169.6 243.9 167.5 248.6 165.9 250.8 C 165.8 250.4 165.8 250.2 165.8 250.2 L 167 249 C 167 249 167 249 167 249 L 165.8 250.2 C 165.8 250.2 165.8 250.4 165.9 250.8 C 166.1 252.1 166.5 255.5 166.2 256.8 C 165.8 258.4 159.3 276.8 160.9 280.5 C 160.9 280.5 150.7 286.2 149 287.5 C 147.4 288.7 147.8 294.8 144.5 300.1 C 141.3 305.5 121.6 308.3 121.6 308.3 S 119.6 306.7 117.4 305.3 L 117.5 305.1 C 117.5 305.1 120.4 295.2 118.7 291.1 L 118.1 290.5 C 118.7 290.5 119.1 290.3 119.4 289.9 C 119.1 290.3 118.7 290.5 118.1 290.5 C 117.1 290.5 115.7 290 114.3 289.5 C 111.8 288.7 112.6 278.5 111.4 275.6 C 110.2 272.7 81.5 260.5 79.5 259.2 C 77.4 258 67.6 257.2 67.6 257.2 L 67.4 257.2 C 66.9 253.9 66.3 251 65.1 250.6 C 64.7 250.5 63.8 250.2 62.7 249.9 L 62.7 249.9 C 58 248.6 49.2 246.3 49.2 245.3 L 49.2 245.3 C 49 244.8 42.7 229.3 45.5 226.5 C 48.4 223.6 58.6 208.1 58.2 206 C 57.8 204 54.5 198.7 54.5 198.7 S 58.6 192.5 57.4 189.7 C 56.1 186.8 53.7 177.8 56.5 179.4 C 59.4 181.1 64.7 186 69.6 183.5 C 73.5 181.6 79.9 176.9 83.5 176.4 C 84.4 176.2 85.2 176.4 85.6 177 C 87.6 179.8 95 191.7 95 191.7 S 95.4 198.7 98.3 197.8 C 99.9 197.4 100.9 196.9 101.7 196.4 H 101.6 C 102.2 196 102.7 195.5 103.2 195 C 104.4 193.8 112.2 177.8 115.9 177.8 C 119.6 177.8 127.7 179 127.7 179 S 152.7 164.7 149 160.6 C 145.3 156.5 138 149.6 142.1 149.2 C 146.2 148.8 150.2 152 153.5 151.2 C 156.3 150.5 166.2 143.3 170.6 140.4 C 170.9 141.2 171.6 142.5 173.2 144.2 C 175.6 147.1 186.7 151.6 189.5 153.3 C 192.4 154.9 185 168.4 185 168.4 H 185 C 185 168.4 187.3 184.3 188.4 189 C 189.5 193.8 199.8 202.8 197.3 210.1 Z"
        stroke-opacity="0.8" stroke-width="1" stroke-linejoin="round" data-id="Anuradhapura" data-type="area"
        class="area" style="stroke-linejoin: round; -webkit-tap-highlight-color: rgba(0, 0, 0, 0); cursor: pointer">
    </path>
    <path districtNumber="District - 18" fill="#e0e0e0" stroke="#ffffff"
        d="M 250.9 295.6 C 248.4 297.3 243.1 295.6 240.7 298.5 S 236.2 309.6 236.2 311.2 C 236.2 312.8 237 323.9 237 323.9 S 234.1 333.3 232.1 335.7 C 230 338.2 220.6 333.7 220.6 333.7 S 208.3 327.6 206.3 327.1 C 205.6 327 202.7 326.6 199.3 326.1 C 193.2 325.3 187.5 324.6 185.4 324.3 C 185.4 324.3 174.8 330.4 171.5 330 C 168.2 329.6 169.1 323.5 168.2 319.8 C 167.8 317.9 167.5 316.2 166.9 314.8 C 166.8 314.6 166.7 314.4 166.6 314.3 L 167 314 C 167 314 171.1 308.7 173.2 306.7 C 175.2 304.6 174 297.3 174.4 296.1 C 174.8 294.8 176.8 292.8 177.2 289.9 C 177.7 287 162.5 284.2 160.9 280.5 C 159.2 276.8 165.8 258.4 166.2 256.8 C 166.5 255.5 166.1 252.1 165.9 250.8 C 167.5 248.6 169.5 243.9 174.8 242.4 C 177.7 241.6 180.1 241.2 183.8 239.6 C 187.1 238.1 190.8 231.3 191.5 230 C 193.1 232 195.3 234.6 197.6 237.1 C 201.1 240.8 205.1 244.2 208.3 244.9 C 214.5 246.1 223.9 243.7 227.6 249 C 231.3 254.3 230.4 262.5 232.9 262.9 C 235.4 263.3 242.3 250.2 246 249 C 246.6 248.8 247.4 248.7 248.4 248.6 V 248.6 C 248.4 248.6 250.5 258.4 250.5 260.9 C 250.5 263.3 243.9 279.3 246.4 283.8 C 248.9 288.3 253.3 294 250.9 295.6 Z"
        stroke-opacity="0.8" stroke-width="1" stroke-linejoin="round" data-id="Polonnaruwa" data-type="area"
        class="area" style="stroke-linejoin: round; -webkit-tap-highlight-color: rgba(0, 0, 0, 0); cursor: pointer">
    </path>
    <path districtNumber="District - 19" fill="#e0e0e0" stroke="#ffffff"
        d="M 231.9 443.5 C 231.9 443.5 228.1 445.7 226.5 446.7 C 224.9 447.8 223.8 452.2 221.6 454.4 C 219.4 456.6 215.6 453.3 215.6 453.3 L 213.2 463.5 L 212.8 464.8 L 204.7 469.7 L 203.6 477.9 L 206.8 481.1 C 206.8 481.1 205.2 487.1 205.2 488.8 C 205.2 490.4 207.9 498 207.9 498 L 204.7 499.1 L 201.9 503.5 C 201.9 503.5 200.8 508.4 198.1 506.8 C 195.4 505.1 197 500.8 197.6 497.5 C 198.1 494.2 191 487.1 188.3 485.5 C 185.6 483.8 178.5 489.8 178.5 489.8 S 178.5 489.9 178.5 489.9 L 173.6 489.2 L 171.5 486.7 L 171.1 483.4 L 171.9 481.4 L 173.6 478.1 L 167.9 472.8 L 169.5 470.7 L 170.3 469.5 L 170.6 468 L 171.1 464.2 L 170.3 459.4 L 169.1 454.6 L 166.6 449.3 L 169.5 450.3 L 173.6 448.7 L 174.4 445.4 L 175.2 443.7 L 178.5 439.7 L 183.4 441.3 L 186.9 435.9 L 189.5 431.9 L 191.6 427 L 193.6 420 L 194.4 414.7 L 193.6 406.5 L 193.7 406.5 L 201.4 403.3 L 197.8 390.1 L 197.7 383.6 L 196.9 370.1 L 194.3 363.2 L 193.9 362.2 L 193.7 358.5 L 193.4 351.3 L 196.8 345.2 C 197.7 345.2 200.6 345.4 200.6 348.8 C 200.6 352.9 201.4 360.3 205.5 360.3 C 209.6 360.3 221.8 351.3 225.1 353.7 C 228.4 356.2 227.6 361.1 227.6 361.1 S 226.8 382.4 228.4 385.7 C 230 388.9 235.2 393 236.3 395.5 L 221.6 411.3 L 216.7 410.7 L 213.4 414.6 L 218.3 418.9 L 219.9 426 C 219.9 426 224.8 426 230.8 427.7 C 236.8 429.3 231.9 443.5 231.9 443.5 Z"
        stroke-opacity="0.8" stroke-width="1" stroke-linejoin="round" data-id="Badulla" data-type="area" class="area"
        style="stroke-linejoin: round; -webkit-tap-highlight-color: rgba(0, 0, 0, 0); cursor: pointer"></path>
    <path districtNumber="District - 20" fill="#e0e0e0" stroke="#ffffff"
        d="M 289.2 431.5 C 289.2 431.5 288.1 487.1 288.1 490.4 C 288.1 492 287.1 510 287.1 510 S 283.2 512.8 280 514.4 C 276.7 516 272.3 517.7 271.2 519.9 C 270.1 522 266.9 527.5 262.5 529.7 C 258.1 531.8 238 538.4 238 538.4 S 231.9 541.1 229.8 540 C 227.6 538.9 223.2 529.7 219.4 529.1 C 215.6 528.6 201.4 529.7 200.3 531.9 C 199.2 534 199.2 537.8 197.6 538.4 C 195.9 538.9 185.6 544.4 185.6 544.4 S 174.7 534 174.7 531.3 C 174.7 529.5 173 523.4 172 518.4 C 171.5 515.8 171.2 513.5 171.4 512.2 C 171.5 511.7 171.6 511 171.8 510.2 C 173.4 504.2 178.3 490.5 178.5 489.9 C 178.5 489.9 178.5 489.8 178.5 489.8 S 185.6 483.8 188.3 485.5 C 191 487.1 198.1 494.2 197.6 497.5 C 197 500.7 195.4 505.1 198.1 506.7 C 200.8 508.4 201.9 503.5 201.9 503.5 L 204.7 499.1 L 207.9 498 C 207.9 498 205.2 490.4 205.2 488.8 C 205.2 487.1 206.8 481.1 206.8 481.1 L 203.6 477.8 L 204.7 469.7 L 212.8 464.8 L 215.6 453.3 C 215.6 453.3 219.4 456.6 221.6 454.4 C 223.7 452.2 224.8 447.8 226.5 446.7 C 228.1 445.7 231.9 443.5 231.9 443.5 H 231.9 C 231.9 443.5 236.8 429.3 230.8 427.7 C 224.8 426 219.9 426 219.9 426 L 219.6 424.8 L 218.3 418.9 L 213.4 414.6 L 216.7 410.7 L 221.6 411.3 L 236.3 395.5 C 236.3 395.5 240.1 399.3 242.3 399.3 C 244.5 399.3 246.7 397.7 246.7 397.7 L 246.1 390 C 246.1 390 249.4 385.7 252.1 383.5 C 254.8 381.3 255.4 378 255.4 378 S 270.7 367.7 271.2 370.4 C 271.8 373.1 271.2 384 271.8 386.2 C 272.3 388.4 279.9 409.1 279.9 409.1 S 273 413.2 272.2 416.8 C 272.1 417.3 272.1 417.9 272.3 418.4 C 273.9 422.2 275.6 427.1 275.6 427.1 L 289.2 431.5 Z"
        stroke-opacity="0.8" stroke-width="1" stroke-linejoin="round" data-id="Moneragala" data-type="area" class="area"
        style="stroke-linejoin: round; -webkit-tap-highlight-color: rgba(0, 0, 0, 0); cursor: pointer"></path>
    <path districtNumber="District - 21" fill="#e0e0e0" stroke="#ffffff"
        d="M 187.2 555.3 C 187.2 555.3 182.3 555.3 179.6 554.2 C 176.8 553.2 169.7 552.6 168.1 552.1 C 166.5 551.5 164.3 551.5 164.3 551.5 S 147.9 543.3 146.3 543.9 C 146.1 544 145.7 544.3 145.2 544.8 C 145.3 544.5 145.3 544.3 145.4 543.9 C 145.9 541.1 146.4 536.2 144.1 536.2 C 140.8 536.2 135.1 535.4 135.1 535.4 L 136.7 528.9 L 119.5 535.4 L 117.3 534.2 L 95.7 522.6 L 97.5 522.3 L 95.8 517.4 L 88.5 508.4 L 89.9 500.6 L 90.5 498.2 L 78.6 492.9 L 76.2 487.1 L 72.9 479.8 L 72.3 477.2 L 71.5 473.4 L 70.9 470.8 L 70.1 464.6 L 71 464.4 L 74.5 463.8 L 72.1 457.2 L 70.7 451.1 L 77.4 448.3 L 77.4 448.2 C 79.2 449 83.4 451 84.4 451.9 C 85.6 453.2 90.9 459.3 90.9 459.3 L 98.7 461 H 98.7 C 98.7 461 106.9 461 111.4 461.8 C 115.9 462.6 120.4 464.2 120.4 464.2 S 120.5 464.5 120.8 464.9 C 121.6 466.1 123.3 468.5 124.9 469.1 C 125.8 469.5 127.9 469.9 130 470.2 C 132.6 470.5 135.1 470.8 135.1 470.8 L 142.1 473.6 C 142.1 473.6 154.7 473.6 157.2 472.8 C 159.7 472 169.1 470.4 169.1 470.4 L 169.4 470.7 L 167.8 472.8 L 173.6 478.1 L 171.9 481.4 L 171.1 483.4 L 171.5 486.7 L 173.6 489.2 L 178.5 489.9 C 178.3 490.5 173.4 504.2 171.8 510.2 L 171.4 510 L 171.8 510.2 C 171.6 511 171.4 511.8 171.4 512.2 C 171.2 513.5 171.5 515.8 172 518.4 C 173 523.4 174.6 529.5 174.6 531.3 C 174.6 534 185.6 544.4 185.6 544.4 L 187.2 555.3 Z"
        stroke-opacity="0.8" stroke-width="1" stroke-linejoin="round" data-id="Ratnapura" data-type="area" class="area"
        style="stroke-linejoin: round; -webkit-tap-highlight-color: rgba(0, 0, 0, 0); cursor: pointer"></path>
    <path districtNumber="District - 22" fill="#e0e0e0" stroke="#ffffff"
        d="M 130.6 409.4 L 129.8 411.5 L 124.8 413.3 V 413.3 L 119.5 415.2 L 115.5 416.8 L 112 418.2 L 113.2 419.3 V 419.3 L 114.6 420.5 L 117.5 427 L 118.7 431.1 L 111.8 437.7 V 441.8 L 113.2 447.4 L 117 451.8 L 120.8 455.3 L 120.9 458.2 L 120.8 464.9 C 120.5 464.5 120.4 464.3 120.4 464.3 S 115.9 462.6 111.4 461.8 C 106.9 461 98.7 461 98.7 461 L 90.9 459.3 C 90.9 459.3 85.6 453.2 84.4 452 C 83.4 451 79.2 449 77.4 448.2 L 76 442.8 H 76 L 75.8 441.8 L 74.5 439.6 L 68.8 438.5 L 68.5 437.6 L 70.2 436.9 L 70.1 436.6 L 70.8 431.1 L 68.6 424 L 71.2 419.3 L 73.3 418.4 H 73.3 L 68.4 412.3 L 71.7 406.9 L 73.3 403.3 L 76.2 395.5 L 88 391.3 L 92.1 389.8 C 92.1 389.8 93.4 388.8 94.7 387.7 C 96 386.6 97.5 385.3 97.9 384.4 C 98.3 383.6 99.9 381.6 101.4 379.7 C 103 377.9 104.4 376.3 104.4 376.3 L 107.4 377.8 L 111.6 382.2 L 113.1 383.9 L 116.1 388.3 L 117.4 388.7 H 117.4 L 120.8 389.8 L 125.3 398.8 L 125.7 402 L 130.6 409.4 Z"
        stroke-opacity="0.8" stroke-width="1" stroke-linejoin="round" data-id="Kegalle" data-type="area" class="area"
        style="stroke-linejoin: round; -webkit-tap-highlight-color: rgba(0, 0, 0, 0); cursor: pointer"></path>
</svg>